<svg viewBox="0 0 252 40" fill="none" xmlns="http://www.w3.org/2000/svg">
<g clip-path="url(#clip0_18_3382)">
<path d="M216.412 0.321143H215.429C215.302 0.321143 215.243 0.266919 215.243 0.158484C215.243 0.050049 215.302 0 215.429 0H217.83C217.953 0 218.012 0.0542195 218.012 0.158484C218.012 0.262748 217.953 0.321143 217.83 0.321143H216.834V2.82349C216.834 2.93192 216.775 2.98615 216.649 2.98615C216.522 2.98615 216.467 2.93192 216.467 2.82349V0.321143H216.412Z" fill="black"/>
<path d="M218.674 0.158484C218.674 0.0542195 218.733 0 218.86 0H218.919C218.982 0 219.042 0.0542216 219.105 0.108439L220.337 1.7141L221.57 0.108439C221.616 0.0532569 221.68 0.0150739 221.751 0H221.814C221.937 0 222 0.0542195 222 0.158484V2.83601C222 2.94445 221.937 2.99867 221.814 2.99867C221.769 2.99896 221.724 2.98252 221.69 2.9525C221.656 2.92247 221.634 2.88098 221.629 2.83601V0.642285L220.523 2.03524C220.474 2.08894 220.409 2.12553 220.337 2.13951C220.265 2.12642 220.2 2.08968 220.152 2.03524L219.042 0.642285V2.89023C219.042 2.99867 218.982 3.05284 218.86 3.05284C218.738 3.05284 218.674 2.99867 218.674 2.89023V0.158484Z" fill="black"/>
<path d="M27.7837 12.274C27.2014 10.7545 26.3184 9.36475 25.1865 8.18609C24.0546 7.00744 22.6965 6.06346 21.1913 5.40924C19.6132 4.71302 17.9012 4.36302 16.1731 4.38329C14.4459 4.36438 12.7342 4.70694 11.1506 5.38842C9.66463 6.02598 8.32717 6.95862 7.22131 8.12846C6.11279 9.31719 5.24208 10.7026 4.65522 12.2115C4.02605 13.8062 3.70952 15.5046 3.72248 17.2162C3.71138 18.9371 4.02778 20.6447 4.65522 22.25C5.23773 23.7689 6.12022 25.1581 7.2513 26.3366C8.38238 27.5152 9.73945 28.4596 11.2435 29.1148C12.8231 29.811 14.5364 30.161 16.2659 30.1408C17.9912 30.159 19.7011 29.818 21.2841 29.1398C22.7705 28.501 24.108 27.567 25.2134 26.3956C26.3233 25.2071 27.1954 23.8217 27.7837 22.3126C28.4074 20.7165 28.7224 19.0189 28.7123 17.3079C28.7227 15.5874 28.4078 13.8802 27.7837 12.274ZM31.2615 23.3928C30.4987 25.3033 29.3727 27.0517 27.9441 28.5435C26.4913 30.0533 24.746 31.2589 22.812 32.0885C18.5719 33.8239 13.8079 33.8239 9.56792 32.0885C7.65844 31.2789 5.93167 30.1008 4.48875 28.6234C3.04584 27.146 1.91579 25.399 1.16484 23.4846C0.3856 21.5169 -0.00826427 19.4208 0.00419276 17.3079C-0.00778618 15.1944 0.393475 13.0985 1.18594 11.1354C1.94798 9.22335 3.07411 7.47347 4.50328 5.98061C5.95744 4.47338 7.70252 3.26941 9.63545 2.43979C13.8755 0.704314 18.6395 0.704314 22.8795 2.43979C24.7917 3.25128 26.5205 4.43228 27.9643 5.91341C29.4081 7.39453 30.5377 9.14591 31.2868 11.0646C32.0637 13.0329 32.4574 15.1285 32.4474 17.2412C32.4568 19.3535 32.0541 21.4477 31.2615 23.4095V23.3928Z" fill="#008476"/>
<path d="M54.145 17.6832C53.7371 16.638 53.1263 15.6817 52.3471 14.868C51.6074 14.0919 50.7099 13.4793 49.7135 13.0705C48.7057 12.6538 47.6236 12.4411 46.5312 12.4449C45.4435 12.4418 44.3671 12.6619 43.37 13.0913C42.3565 13.5164 41.433 14.1262 40.6478 14.8888C39.8261 15.6823 39.1769 16.6331 38.7401 17.6832C38.2592 18.836 38.0194 20.0731 38.0353 21.3199C38.0207 22.5747 38.2604 23.8197 38.7401 24.9817C39.1744 26.0391 39.8237 26.9973 40.6478 27.7968C41.4364 28.5554 42.359 29.1646 43.37 29.5943C44.369 30.0172 45.4444 30.2357 46.5312 30.2366C47.6274 30.238 48.7141 30.0357 49.7346 29.6402C50.7267 29.2562 51.6246 28.6677 52.3682 27.9136C53.1421 27.1078 53.7461 26.1579 54.145 25.1193C54.6003 23.9198 54.8236 22.6466 54.8034 21.3658C54.8253 20.1078 54.6018 18.8575 54.145 17.6832ZM57.437 26.4038C56.8505 27.8071 55.99 29.0826 54.9047 30.1574C53.8773 31.1713 52.6565 31.9736 51.3131 32.5179C49.9969 33.0653 48.5838 33.3488 47.1558 33.352C46.1403 33.3593 45.1292 33.2188 44.155 32.9349C43.2919 32.6883 42.4659 32.3292 41.6987 31.8673C40.9788 31.4249 40.3144 30.8999 39.7193 30.3033C39.1436 29.7253 38.6184 29.1003 38.1492 28.4349V39.979H34.6504V9.80075H38.1492V14.4343C38.6376 13.743 39.1765 13.0878 39.7615 12.4741C40.3506 11.8518 41.0154 11.3041 41.7409 10.8434C42.4981 10.3682 43.3155 9.99373 44.1719 9.72984C45.1358 9.43903 46.1397 9.29832 47.1474 9.31278C50.0378 9.32431 52.8094 10.4512 54.871 12.4532C55.9586 13.5261 56.8195 14.802 57.4033 16.2068C58.6805 19.4785 58.6805 23.1028 57.4033 26.3746L57.437 26.4038Z" fill="#008476"/>
<path d="M78.6116 20.073C78.5268 19.0536 78.3069 18.0496 77.9574 17.0868C77.635 16.1717 77.1442 15.3233 76.5098 14.5845C75.8846 13.8655 75.1159 13.282 74.2518 12.8704C73.2853 12.4206 72.2261 12.1993 71.1581 12.224C70.1766 12.214 69.2052 12.4191 68.3135 12.8245C67.4449 13.2214 66.6623 13.7808 66.0091 14.4719C65.3293 15.1991 64.7798 16.0355 64.3842 16.945C63.9493 17.9376 63.6758 18.9919 63.5738 20.0688H78.6116V20.073ZM64.4728 25.9368C64.9275 26.865 65.5612 27.6966 66.3383 28.385C67.0765 29.0451 67.9362 29.559 68.8706 29.8989C69.8162 30.2438 70.817 30.4175 71.825 30.4118C73.284 30.4546 74.7319 30.1484 76.0455 29.5193C77.2324 28.9077 78.3124 28.1122 79.2447 27.1629L81.4267 29.0814C80.281 30.3611 78.9114 31.4263 77.3834 32.226C75.6295 33.0639 73.6961 33.4689 71.749 33.4063C70.1905 33.4148 68.6457 33.1186 67.2035 32.5347C65.8046 31.9731 64.5343 31.1391 63.4683 30.0824C62.3775 28.9896 61.5168 27.694 60.936 26.2704C60.2925 24.7144 59.971 23.0467 59.9906 21.3658C59.9804 19.7614 60.2664 18.1686 60.8347 16.6656C61.3585 15.2506 62.1522 13.948 63.1729 12.8287C64.1955 11.7146 65.445 10.8269 66.8394 10.2239C68.2338 9.62079 69.7416 9.31601 71.2636 9.32956C72.8644 9.30134 74.451 9.62919 75.9062 10.2888C77.2362 10.9014 78.4156 11.7922 79.3628 12.8996C80.3253 14.0415 81.0509 15.3594 81.4984 16.7782C81.9918 18.3226 82.2368 19.934 82.2243 21.5535V22.0415C82.222 22.2354 82.2079 22.429 82.1822 22.6212H63.6118C63.7026 23.7793 64.0103 24.9106 64.5192 25.9576L64.4728 25.9368Z" fill="#008476"/>
<path d="M87.9768 32.8684H84.478V9.82176H87.9768V13.8172C88.7753 12.5563 89.8268 11.4705 91.0663 10.6267C92.3409 9.75083 93.9925 9.31291 96.0212 9.31291C97.3197 9.28775 98.6105 9.51597 99.8197 9.98442C100.888 10.4044 101.851 11.0507 102.639 11.8778C103.426 12.7207 104.029 13.7144 104.412 14.7972C104.834 16.004 105.041 17.274 105.024 18.5507V32.86H101.525V19.4057C101.525 17.2662 100.968 15.573 99.8365 14.326C98.7054 13.0789 97.1143 12.4534 95.0209 12.4534C94.0652 12.4441 93.1165 12.6168 92.2269 12.9622C91.3816 13.2953 90.6145 13.7964 89.9731 14.4344C89.3267 15.0907 88.8238 15.8715 88.496 16.7282C88.1389 17.6692 87.9628 18.6678 87.9768 19.6727V32.8684Z" fill="#008476"/>
<path d="M113.663 1.65991H108.122V32.8642H113.663V1.65991Z" fill="#00BD71"/>
<path d="M122.488 32.8684H116.942V9.32967H122.488V13.0206C122.869 12.4576 123.292 11.9237 123.754 11.4233C124.238 10.9149 124.786 10.4692 125.383 10.097C126.742 9.24276 128.327 8.80722 129.937 8.84587C132.655 8.84587 134.756 9.66331 136.239 11.2982C137.721 12.933 138.461 15.1324 138.459 17.8961V32.8767H132.934V19.5309C132.934 17.6903 132.492 16.2737 131.609 15.2811C130.725 14.2885 129.47 13.7908 127.844 13.788C127.125 13.7587 126.408 13.8803 125.74 14.1449C125.072 14.4094 124.469 14.8109 123.97 15.3228C122.982 16.3446 122.48 17.7751 122.48 19.6143V32.8726L122.488 32.8684Z" fill="#00BD71"/>
<path d="M156.936 9.32959H162.71L152.893 33.0477H147.938L138.075 9.32959H143.983L150.437 26.625L156.936 9.32959Z" fill="#00BD71"/>
<path d="M178.849 19.4474C178.763 18.616 178.564 17.7997 178.259 17.0202C177.976 16.2958 177.56 15.6296 177.03 15.0558C176.51 14.5049 175.887 14.0588 175.194 13.7421C174.43 13.4067 173.6 13.2402 172.763 13.2542C171.978 13.2304 171.195 13.3707 170.468 13.6661C169.741 13.9614 169.085 14.4052 168.543 14.9683C167.395 16.205 166.685 17.7772 166.521 19.4474H178.849ZM168.944 27.4549C170.222 28.4921 171.836 29.0386 173.489 28.9939C174.709 29.0242 175.92 28.7804 177.03 28.2808C178.119 27.7417 179.116 27.0382 179.985 26.1955L183.209 29.0064C182.07 30.3381 180.673 31.4302 179.098 32.2178C177.32 33.0594 175.364 33.4711 173.392 33.4189C171.737 33.4333 170.095 33.1317 168.556 32.5305C167.1 31.957 165.772 31.1069 164.647 30.0282C163.524 28.928 162.636 27.6161 162.035 26.1704C161.384 24.5812 161.06 22.8799 161.081 21.1657C161.068 19.5362 161.362 17.9185 161.946 16.3946C162.494 14.9513 163.318 13.6259 164.373 12.4909C165.42 11.3748 166.679 10.4734 168.079 9.83842C169.561 9.17408 171.174 8.83952 172.801 8.85835C174.532 8.82154 176.249 9.17083 177.824 9.88017C179.213 10.5286 180.44 11.4729 181.416 12.6452C182.391 13.8481 183.124 15.2241 183.576 16.6991C184.064 18.275 184.308 19.9142 184.302 21.5619C184.302 21.7996 184.302 22.0374 184.302 22.2751C184.302 22.5128 184.264 22.763 184.231 23.0341H166.576C166.91 24.9609 167.69 26.4457 168.94 27.4675L168.944 27.4549Z" fill="#00BD71"/>
<path d="M202.881 29.1691C202.44 30.0673 201.794 30.8524 200.994 31.4629C200.144 32.0953 199.18 32.5636 198.154 32.8433C197.015 33.1597 195.838 33.3169 194.655 33.3104C192.867 33.3003 191.094 33.0002 189.405 32.4221C187.624 31.8239 185.958 30.9343 184.475 29.7905L186.931 26.137C188.148 27.0379 189.486 27.7652 190.907 28.2974C192.148 28.7691 193.465 29.019 194.794 29.0356C196.035 29.0356 196.905 28.802 197.546 28.3432C197.854 28.1417 198.105 27.8667 198.276 27.5437C198.447 27.2207 198.533 26.8602 198.525 26.4957V26.404C198.535 25.9791 198.385 25.5657 198.103 25.2445C197.767 24.8844 197.366 24.5889 196.921 24.3729C196.367 24.1007 195.789 23.8774 195.195 23.7056L193.174 23.105C192.292 22.8339 191.409 22.5378 190.515 22.2125C189.654 21.9051 188.842 21.4767 188.105 20.9405C187.396 20.4241 186.8 19.7716 186.353 19.022C185.87 18.1565 185.634 17.1778 185.669 16.1902V16.1026C185.655 15.0687 185.881 14.0455 186.332 13.1123C186.76 12.2318 187.38 11.4557 188.147 10.8393C188.958 10.1999 189.883 9.71487 190.873 9.40886C191.954 9.07824 193.08 8.91365 194.212 8.92088C195.77 8.92593 197.318 9.16497 198.804 9.62986C200.298 10.0833 201.719 10.7448 203.024 11.5942L200.842 15.427C199.736 14.7624 198.562 14.2158 197.339 13.7963C196.29 13.4193 195.185 13.2164 194.068 13.1957C193.191 13.1431 192.32 13.3776 191.591 13.863C191.316 14.0536 191.092 14.3071 190.937 14.602C190.783 14.8969 190.703 15.2243 190.705 15.5563V15.648C190.702 15.8511 190.741 16.0525 190.82 16.2403C190.898 16.428 191.014 16.5982 191.16 16.7407C191.513 17.0812 191.919 17.3628 192.363 17.5748C192.921 17.8525 193.498 18.0908 194.089 18.288C194.739 18.509 195.419 18.7051 196.111 18.9344C196.985 19.2055 197.867 19.5142 198.745 19.8728C199.59 20.215 200.39 20.656 201.129 21.1866C201.831 21.6991 202.425 22.3423 202.877 23.08C203.356 23.9059 203.593 24.8476 203.56 25.7992V25.8909C203.59 27.013 203.356 28.1266 202.877 29.144L202.881 29.1691Z" fill="#00BD71"/>
<path d="M212.808 25.4946C212.808 26.5373 213.065 27.2921 213.58 27.7509C214.194 28.2457 214.975 28.493 215.766 28.4432C216.949 28.4407 218.116 28.1651 219.172 27.6383V32.0549C218.471 32.4414 217.724 32.7399 216.948 32.9433C216.057 33.1637 215.14 33.2689 214.221 33.2561C213.281 33.2649 212.343 33.1442 211.436 32.8974C210.617 32.6771 209.858 32.2812 209.212 31.738C208.557 31.1608 208.062 30.429 207.772 29.611C207.404 28.5562 207.233 27.4441 207.266 26.3287V13.9046H204.219V9.31693H207.266V2.85254H212.808V9.31693H219.265V13.9046H212.808V25.4946Z" fill="#00BD71"/>
</g>
<defs>
<clipPath id="clip0_18_3382">
<rect width="222" height="40" fill="white"/>
</clipPath>
</defs>
</svg>
