<svg width="48" height="48" viewBox="0 0 48 48" fill="none" xmlns="http://www.w3.org/2000/svg">
<rect x="0.5" y="0.5" width="47" height="47" stroke="#917059"/>
<path d="M17.1474 32.168C16.9874 32.168 16.6274 32.152 16.0674 32.12C15.5234 32.088 14.8914 32.056 14.1714 32.024C13.4674 32.008 12.7954 32 12.1554 32C11.8354 32 11.5634 32.008 11.3394 32.024C11.1314 32.04 10.8994 32.056 10.6434 32.072C10.4034 32.104 10.0674 32.12 9.63538 32.12C9.42738 32.12 9.25938 32.096 9.13138 32.048C9.00338 32 8.93938 31.92 8.93938 31.808C8.93938 31.68 9.00338 31.6 9.13138 31.568C9.25938 31.52 9.45938 31.472 9.73138 31.424C10.3394 31.312 10.7554 31.128 10.9794 30.872C11.2194 30.616 11.3394 30.2 11.3394 29.624V18.824C11.3394 18.248 11.2194 17.84 10.9794 17.6C10.7554 17.36 10.3394 17.184 9.73138 17.072C9.45938 17.024 9.25938 16.976 9.13138 16.928C9.00338 16.864 8.93938 16.768 8.93938 16.64C8.93938 16.528 9.00338 16.448 9.13138 16.4C9.25938 16.352 9.42738 16.328 9.63538 16.328C10.0514 16.328 10.3794 16.336 10.6194 16.352C10.8754 16.352 11.1234 16.36 11.3634 16.376C11.6034 16.376 11.9154 16.376 12.2994 16.376C12.5554 16.376 12.8754 16.368 13.2594 16.352C13.6594 16.336 14.0674 16.312 14.4834 16.28C14.9154 16.248 15.2994 16.224 15.6354 16.208C15.9874 16.192 16.2434 16.184 16.4034 16.184C18.0354 16.184 19.4274 16.384 20.5794 16.784C21.7314 17.168 22.6674 17.712 23.3874 18.416C24.1074 19.104 24.6354 19.912 24.9714 20.84C25.3234 21.752 25.4994 22.736 25.4994 23.792C25.4994 24.944 25.2834 26.024 24.8514 27.032C24.4194 28.04 23.8194 28.936 23.0514 29.72C22.2834 30.488 21.3954 31.088 20.3874 31.52C19.3794 31.952 18.2994 32.168 17.1474 32.168ZM16.8594 31.328C18.1074 31.328 19.2114 31.024 20.1714 30.416C21.1314 29.808 21.8754 28.968 22.4034 27.896C22.9474 26.824 23.2194 25.592 23.2194 24.2C23.2194 23.048 23.0274 22.024 22.6434 21.128C22.2594 20.216 21.7474 19.456 21.1074 18.848C20.4674 18.224 19.7474 17.752 18.9474 17.432C18.1474 17.096 17.3394 16.928 16.5234 16.928C15.8354 16.928 15.2434 16.952 14.7474 17C14.2674 17.032 13.8994 17.152 13.6434 17.36C13.3874 17.568 13.2594 17.912 13.2594 18.392V29.096C13.2594 29.736 13.4354 30.216 13.7874 30.536C14.1394 30.856 14.5874 31.072 15.1314 31.184C15.6914 31.28 16.2674 31.328 16.8594 31.328Z" fill="#917059"/>
<path d="M22.8986 32.12C22.6906 32.12 22.5226 32.088 22.3946 32.024C22.2666 31.976 22.2026 31.904 22.2026 31.808C22.2026 31.696 22.2666 31.6 22.3946 31.52C22.5386 31.424 22.7386 31.336 22.9946 31.256C23.4106 31.128 23.7946 30.936 24.1466 30.68C24.4986 30.424 24.8026 30 25.0586 29.408C25.5066 28.384 25.9146 27.424 26.2826 26.528C26.6666 25.632 27.0266 24.752 27.3626 23.888C27.6986 23.024 28.0426 22.128 28.3946 21.2C28.7626 20.256 29.1466 19.232 29.5466 18.128C29.6266 17.904 29.6986 17.68 29.7626 17.456C29.8266 17.232 29.8666 16.992 29.8826 16.736C30.0266 16.688 30.1706 16.64 30.3146 16.592C30.4586 16.544 30.6026 16.472 30.7466 16.376C30.8906 16.28 30.9866 16.136 31.0346 15.944C31.0986 15.752 31.1546 15.624 31.2026 15.56C31.2186 15.544 31.2346 15.536 31.2506 15.536C31.2826 15.536 31.3066 15.552 31.3226 15.584C31.3546 15.648 31.3786 15.728 31.3946 15.824C31.4266 15.92 31.4586 16.016 31.4906 16.112C31.8746 17.328 32.2746 18.568 32.6906 19.832C33.1066 21.096 33.5066 22.32 33.8906 23.504C34.2906 24.672 34.6506 25.728 34.9706 26.672C35.3066 27.6 35.5706 28.352 35.7626 28.928C35.9866 29.568 36.2266 30.048 36.4826 30.368C36.7386 30.688 37.0026 30.912 37.2746 31.04C37.5626 31.168 37.8666 31.264 38.1866 31.328C38.4586 31.376 38.6586 31.456 38.7866 31.568C38.9146 31.664 38.9786 31.768 38.9786 31.88C38.9786 31.976 38.9146 32.04 38.7866 32.072C38.6586 32.104 38.4906 32.12 38.2826 32.12C38.0586 32.12 37.7546 32.104 37.3706 32.072C36.9866 32.056 36.5786 32.032 36.1466 32C35.7146 31.984 35.3146 31.976 34.9466 31.976C34.6426 31.976 34.3306 31.976 34.0106 31.976C33.6906 31.976 33.3946 31.984 33.1226 32C32.8506 32 32.6186 32 32.4266 32C32.2186 32 32.0506 31.976 31.9226 31.928C31.7946 31.88 31.7306 31.808 31.7306 31.712C31.7306 31.6 31.8106 31.504 31.9706 31.424C32.1306 31.344 32.3146 31.288 32.5226 31.256C33.0506 31.176 33.4266 31.04 33.6506 30.848C33.8746 30.656 33.9866 30.432 33.9866 30.176C33.9866 29.936 33.9306 29.592 33.8186 29.144C33.7226 28.68 33.6026 28.192 33.4586 27.68C33.3146 27.152 33.1786 26.688 33.0506 26.288C33.0186 26.16 32.9546 26.088 32.8586 26.072C32.7786 26.04 32.6266 26.024 32.4026 26.024H27.8666C27.8026 26.024 27.7306 26.056 27.6506 26.12C27.5866 26.168 27.5226 26.28 27.4586 26.456C27.4106 26.616 27.3306 26.872 27.2186 27.224C27.1066 27.56 26.9946 27.92 26.8826 28.304C26.7706 28.688 26.6746 29.032 26.5946 29.336C26.5146 29.64 26.4746 29.832 26.4746 29.912C26.4746 30.264 26.6106 30.56 26.8826 30.8C27.1546 31.024 27.4826 31.184 27.8666 31.28C28.3946 31.424 28.6586 31.584 28.6586 31.76C28.6586 31.856 28.5946 31.928 28.4666 31.976C28.3386 32.008 28.1706 32.024 27.9626 32.024C27.7546 32.024 27.4506 32.016 27.0506 32C26.6506 31.984 26.2266 31.976 25.7786 31.976C25.2506 31.976 24.7386 32 24.2426 32.048C23.7466 32.096 23.2986 32.12 22.8986 32.12ZM28.5146 25.232H32.2346C32.4586 25.232 32.5706 25.192 32.5706 25.112C32.5706 25.08 32.5626 25.048 32.5466 25.016C32.5466 24.968 32.5386 24.92 32.5226 24.872L30.6506 19.016C30.5546 18.728 30.4826 18.584 30.4346 18.584C30.4026 18.584 30.3386 18.72 30.2426 18.992L28.0586 24.872C28.0266 24.968 28.0106 25.032 28.0106 25.064C28.0106 25.144 28.0506 25.192 28.1306 25.208C28.2266 25.224 28.3546 25.232 28.5146 25.232Z" fill="#917059"/>
</svg>
