<?xml version="1.0" standalone="no"?>
<!DOCTYPE svg PUBLIC "-//W3C//DTD SVG 20010904//EN"
 "http://www.w3.org/TR/2001/REC-SVG-20010904/DTD/svg10.dtd">
<svg version="1.0" xmlns="http://www.w3.org/2000/svg"
 width="700.000000pt" height="700.000000pt" viewBox="0 0 700.000000 700.000000"
 preserveAspectRatio="xMidYMid meet">
<metadata>
Created by potrace 1.14, written by Peter Selinger 2001-2017
</metadata>
<g transform="translate(0.000000,700.000000) scale(0.100000,-0.100000)"
fill="#000000" stroke="none">
<path d="M0 3500 l0 -3500 3500 0 3500 0 0 3500 0 3500 -3500 0 -3500 0 0
-3500z m6890 0 l0 -3390 -3390 0 -3390 0 0 3390 0 3390 3390 0 3390 0 0 -3390z"/>
<path d="M4525 4675 c-22 -51 -29 -58 -82 -81 -86 -38 -87 -38 -90 -75 -6 -57
-43 -165 -169 -499 -57 -150 -115 -300 -129 -335 -4 -11 -9 -24 -11 -30 -9
-35 -201 -505 -250 -613 -13 -29 -24 -55 -24 -58 0 -10 -91 -219 -130 -299
-61 -124 -125 -180 -272 -238 -104 -41 -128 -56 -128 -83 0 -46 54 -54 270
-39 69 5 240 8 380 8 272 -2 299 3 286 45 -7 20 -39 36 -140 71 -80 27 -132
65 -155 115 -24 48 -21 96 9 201 12 39 23 79 25 89 20 90 100 314 119 331 21
20 34 20 389 20 309 -1 369 -3 381 -15 17 -18 69 -191 116 -385 26 -107 39
-194 33 -224 -12 -67 -62 -104 -177 -131 -104 -24 -146 -44 -146 -69 0 -44 16
-46 349 -47 174 0 370 -5 436 -9 198 -14 257 -10 268 19 9 23 -28 61 -70 73
-185 54 -235 80 -285 146 -35 44 -81 131 -100 187 -9 25 -44 124 -78 220 -55
155 -146 420 -215 625 -31 93 -272 834 -326 1003 -23 72 -46 132 -51 132 -4 0
-19 -25 -33 -55z m5 -635 c39 -124 103 -324 142 -445 38 -121 71 -231 72 -245
l1 -25 -320 -2 c-195 -1 -324 2 -332 8 -8 8 -3 33 22 102 68 189 166 453 175
472 5 11 39 102 76 203 55 149 69 181 80 170 7 -7 45 -114 84 -238z"/>
<path d="M2249 4636 c-11 -10 -315 -20 -597 -21 -300 0 -325 -1 -337 -18 -30
-41 -1 -67 101 -86 139 -28 202 -71 225 -154 9 -31 12 -272 12 -897 -1 -924 0
-901 -53 -963 -22 -25 -94 -62 -141 -71 -89 -17 -131 -30 -144 -43 -20 -19
-19 -26 5 -48 17 -15 36 -18 123 -17 56 1 116 4 132 7 34 5 514 5 590 0 28 -2
133 -6 235 -10 175 -6 289 2 398 29 12 3 30 8 40 10 99 23 279 115 392 200
319 239 495 606 485 1011 -9 410 -196 732 -525 906 -122 65 -316 127 -450 144
-30 4 -64 9 -75 12 -23 5 -411 13 -416 9z m326 -120 c140 -32 251 -79 360
-151 243 -161 410 -441 442 -740 38 -369 -58 -695 -272 -923 -173 -186 -395
-273 -678 -267 -176 4 -253 18 -342 62 -62 32 -101 71 -128 131 -21 47 -22 52
-23 882 0 459 3 853 8 875 17 75 79 119 192 135 63 8 400 6 441 -4z"/>
</g>
</svg>
